# xmcd CD database file
#
# Track frame offsets:
#	187
#	37022
#	72987
#	120400
#	156512
#	259990
#
# Disc length: 3782 seconds
#
# Revision: 0
# Processed by: cddbd v1.5.2PL0 Copyright (c) Steve Scherf et al.
# Submitted via: CDex 1.70beta2
#
DISCID=540ec406
DTITLE=Shotaro Moriyasu - The Historic MOCAMBO SESSION '54 Disk2
DYEAR=1954
DGENRE=Jazz
TTITLE0=Tenderly
TTITLE1=Everything Happens to Me
TTITLE2=Steeple Chase
TTITLE3=My Funny Valentine
TTITLE4=Perdido
TTITLE5=It's Only a Paper Moon
EXTD=YEAR: 1954
EXTT0=
EXTT1=
EXTT2=
EXTT3=
EXTT4=
EXTT5=
PLAYORDER=
